<svg width="250" height="123" viewBox="0 0 250 123" fill="none" xmlns="http://www.w3.org/2000/svg">
<path d="M28.9095 38.5897C27.321 39.3189 25.5827 39.9569 23.6947 40.5038C21.8197 41.0376 20.0033 41.3045 18.2454 41.3045C15.9798 41.3045 13.903 40.992 12.015 40.367C10.1269 39.742 8.51888 38.8045 7.19075 37.5545C5.8496 36.2915 4.81445 34.716 4.08528 32.828C3.35611 30.9269 2.99153 28.7069 2.99153 26.1678C2.99153 21.5194 4.3457 17.854 7.05403 15.1717C9.77539 12.4764 13.5059 11.1288 18.2454 11.1288C19.8991 11.1288 21.5853 11.3306 23.304 11.7342C25.0358 12.1248 26.8978 12.7954 28.89 13.7459V18.3358H28.5384C28.1348 18.0233 27.5488 17.6131 26.7806 17.1053C26.0124 16.5975 25.2572 16.1743 24.515 15.8358C23.6165 15.4321 22.5944 15.1001 21.4486 14.8397C20.3158 14.5663 19.0267 14.4295 17.5814 14.4295C14.3262 14.4295 11.748 15.4777 9.847 17.5741C7.95898 19.6574 7.01497 22.4829 7.01497 26.0506C7.01497 29.8136 8.00455 32.7433 9.98372 34.8397C11.9629 36.923 14.6582 37.9647 18.0697 37.9647C19.3197 37.9647 20.5631 37.841 21.8001 37.5936C23.0501 37.3462 24.1439 37.0272 25.0814 36.6366V29.5077H17.2884V26.1092H28.9095V38.5897ZM49.5876 22.9256H49.3923C48.8454 22.7954 48.3116 22.7043 47.7907 22.6522C47.2829 22.5871 46.6775 22.5545 45.9743 22.5545C44.8415 22.5545 43.7478 22.8084 42.6931 23.3163C41.6384 23.811 40.6228 24.4556 39.6462 25.2498V40.7381H35.9743V18.9217H39.6462V22.1444C41.1046 20.9725 42.3871 20.1457 43.4939 19.6639C44.6137 19.1691 45.753 18.9217 46.9118 18.9217C47.5499 18.9217 48.0121 18.9413 48.2986 18.9803C48.585 19.0064 49.0147 19.065 49.5876 19.1561V22.9256ZM71.7306 40.7381H68.0587V38.3163C66.8217 39.2928 65.6368 40.0415 64.504 40.5623C63.3712 41.0832 62.1212 41.3436 60.754 41.3436C58.4624 41.3436 56.6785 40.647 55.4025 39.2538C54.1264 37.8475 53.4884 35.7902 53.4884 33.0819V18.9217H57.1603V31.3436C57.1603 32.4504 57.2124 33.4009 57.3165 34.1952C57.4207 34.9764 57.6421 35.647 57.9806 36.2069C58.3322 36.7798 58.7879 37.1965 59.3478 37.4569C59.9077 37.7173 60.7215 37.8475 61.7892 37.8475C62.7397 37.8475 63.7749 37.6001 64.8947 37.1053C66.0275 36.6105 67.0822 35.979 68.0587 35.2108V18.9217H71.7306V40.7381ZM98.7564 29.5663C98.7564 31.3371 98.5025 32.9582 97.9947 34.4295C97.4868 35.8879 96.7707 37.1248 95.8462 38.1405C94.9868 39.104 93.9712 39.8527 92.7993 40.3866C91.6405 40.9074 90.41 41.1678 89.1079 41.1678C87.9751 41.1678 86.9465 41.0441 86.022 40.7967C85.1105 40.5493 84.1796 40.1652 83.229 39.6444V48.785H79.5572V18.9217H83.229V21.2069C84.2056 20.3866 85.2993 19.703 86.5103 19.1561C87.7342 18.5962 89.0363 18.3163 90.4165 18.3163C93.0467 18.3163 95.091 19.3123 96.5493 21.3045C98.0207 23.2837 98.7564 26.0376 98.7564 29.5663ZM94.9673 29.6639C94.9673 27.0337 94.5181 25.0676 93.6197 23.7655C92.7212 22.4634 91.341 21.8123 89.479 21.8123C88.4243 21.8123 87.3631 22.0402 86.2954 22.4959C85.2277 22.9517 84.2056 23.5506 83.229 24.2928V36.6561C84.2707 37.1248 85.1626 37.4439 85.9048 37.6131C86.66 37.7824 87.5129 37.867 88.4634 37.867C90.5077 37.867 92.1027 37.1769 93.2486 35.7967C94.3944 34.4165 94.9673 32.3722 94.9673 29.6639ZM123.673 29.8397C123.673 33.3944 122.761 36.2004 120.938 38.2577C119.115 40.315 116.674 41.3436 113.614 41.3436C110.528 41.3436 108.074 40.315 106.251 38.2577C104.441 36.2004 103.536 33.3944 103.536 29.8397C103.536 26.285 104.441 23.479 106.251 21.4217C108.074 19.3514 110.528 18.3163 113.614 18.3163C116.674 18.3163 119.115 19.3514 120.938 21.4217C122.761 23.479 123.673 26.285 123.673 29.8397ZM119.884 29.8397C119.884 27.0142 119.33 24.9178 118.224 23.5506C117.117 22.1704 115.58 21.4803 113.614 21.4803C111.622 21.4803 110.073 22.1704 108.966 23.5506C107.872 24.9178 107.325 27.0142 107.325 29.8397C107.325 32.5741 107.879 34.6509 108.985 36.0702C110.092 37.4764 111.635 38.1795 113.614 38.1795C115.567 38.1795 117.097 37.4829 118.204 36.0897C119.324 34.6834 119.884 32.6001 119.884 29.8397Z" fill="#918F8F"/>
<path d="M88.3836 121.689C79.4042 119.623 66.1675 115.596 62.912 113.957C60.9444 112.959 60.1216 111.569 57.1523 104.371C53.3244 95.0343 50.7129 87.2302 51.0349 85.9473C52.0365 81.5642 54.8627 71.1943 55.2563 70.2678C55.9002 68.9493 63.1982 63.1408 71.1402 57.6886C77.1504 53.5549 78.0805 53.1273 80.6563 53.0917C83.8402 53.0204 106.056 59.1497 110.457 61.2878C112.961 62.4994 113.819 63.4615 115.072 66.7043C120.76 80.9227 122.835 86.5887 122.978 88.3349C123.121 89.9384 122.799 91.6133 121.117 97.7782C120.008 101.912 118.864 105.618 118.577 106.081C116.968 108.54 97.1484 122.438 94.8231 122.723C94.1076 122.83 91.3887 122.366 88.3836 121.689ZM97.7924 92.1834C99.116 91.7915 100.189 91.2926 100.189 91.0431C100.189 90.8293 99.1518 89.689 97.8997 88.513C93.8571 84.6288 88.3836 82.562 82.3019 82.562C78.6529 82.562 74.0737 83.6666 74.0737 84.5219C74.0737 84.7713 74.9323 85.8048 75.9698 86.8025C81.658 92.3973 90.2081 94.4997 97.7924 92.1834Z" fill="url(#paint0_linear_2_35)"/>
<path fill-rule="evenodd" clip-rule="evenodd" d="M106.68 82.9185C106.008 88.7382 99.0078 95.2382 85.1378 92.3888C75.0078 88.7382 68.5078 80.2382 72.9009 72.2703C74.0078 70.2382 79.5078 63.2382 93.0078 66.6046C106.008 70.7382 107.508 80.2382 106.68 82.9185ZM93.0628 62.8C82.0965 59.8596 71.6966 64.0694 69.5078 72.2381C67.32 80.4079 74.1715 89.4495 85.1378 92.3888C96.1041 95.3292 107.32 91.0883 109.508 82.9185C111.696 74.7487 104.03 65.7393 93.0628 62.8Z" fill="url(#paint1_linear_2_35)" fill-opacity="0.5"/>
<path fill-rule="evenodd" clip-rule="evenodd" d="M113.579 84.1561C110.937 94.0204 98.0569 99.1404 84.8168 95.5913C71.5756 92.0412 62.9804 81.1641 65.6217 71.2998C68.2641 61.4355 81.1438 56.3144 94.385 59.8645C107.625 63.4136 116.221 74.2918 113.579 84.1561ZM93.5629 62.9335C82.5966 59.9931 71.929 64.235 69.7402 72.4038C67.5524 80.5736 74.6716 89.583 85.6378 92.5223C96.6041 95.4627 107.273 91.2218 109.461 83.052C111.648 74.8823 104.53 65.8728 93.5629 62.9335Z" fill="url(#paint2_linear_2_35)" fill-opacity="0.5"/>
<path d="M92.6021 66.519C102.155 69.0785 108.355 76.9262 106.45 84.0426C105.612 87.1703 103.347 89.6377 100.26 91.2025C97.8179 87.6221 93.5952 84.6371 88.3682 83.2353C83.0157 81.8011 77.7441 82.3309 73.8089 84.3252C71.7892 81.3626 70.9894 77.9907 71.853 74.7688C73.7583 67.6524 83.0501 63.9575 92.6021 66.519Z" fill="#45484D"/>
<path d="M105.952 85.466C104.881 87.9232 102.862 89.8831 100.26 91.2028C97.8182 87.6224 93.5955 84.6374 88.3685 83.2356C83.0504 81.8105 77.8143 82.3241 73.8872 84.288C86.7649 69.3806 102.453 69.7635 105.952 85.466Z" fill="#606B74"/>
<path d="M92.5183 67.8175C100.979 70.0853 106.789 76.5707 106.663 83.0449L106.667 83.0267C106.683 82.9234 106.698 82.8191 106.711 82.7147L106.715 82.6874C106.727 82.5871 106.739 82.4848 106.748 82.3845L106.753 82.343C106.761 82.2478 106.768 82.1526 106.774 82.0564L106.778 81.9936C106.783 81.9075 106.786 81.8214 106.788 81.7353L106.791 81.636C106.792 81.5621 106.794 81.4882 106.793 81.4152C106.793 81.3697 106.793 81.3251 106.792 81.2795C106.791 81.2208 106.789 81.16 106.788 81.1012C106.786 81.0384 106.784 80.9767 106.78 80.9139C106.778 80.8723 106.777 80.8298 106.774 80.7873C106.769 80.7133 106.764 80.6404 106.758 80.5675L106.755 80.5229L106.75 80.4773C106.741 80.372 106.73 80.2677 106.717 80.1623C105.725 74.4244 100.285 69.0411 92.7339 67.0163C83.1819 64.4548 73.8648 68.2399 71.9302 75.4687C71.6477 76.52 71.5384 77.5876 71.5849 78.6511L71.5829 78.6278L71.5799 78.6055C71.5697 78.5154 71.5606 78.4242 71.5525 78.3331L71.5505 78.3108L71.5485 78.2875L71.5465 78.2652C71.5394 78.1822 71.5333 78.0971 71.5282 78.014C71.5262 77.9776 71.5252 77.9411 71.5232 77.9057C71.5191 77.8378 71.5161 77.7709 71.5141 77.7031C71.5131 77.6524 71.512 77.6008 71.511 77.5491C71.51 77.4924 71.51 77.4347 71.51 77.3769C71.51 77.3172 71.51 77.2564 71.512 77.1977C71.5657 76.8867 71.6325 76.5778 71.7145 76.2699C73.6502 69.0421 82.9663 65.257 92.5183 67.8175Z" fill="#2C2E35"/>
<path d="M92.0566 69.5446C100.515 71.8124 106.326 78.2978 106.201 84.7721C106.357 83.8149 106.37 82.8486 106.254 81.8895C105.261 76.1516 99.8216 70.7672 92.2712 68.7434C82.7962 66.2032 73.553 69.9072 71.516 77.0226C71.514 77.0733 71.513 77.1229 71.512 77.1725C73.9134 70.4856 82.8751 67.0833 92.0566 69.5446Z" fill="#2C2E35"/>
<path d="M91.594 71.2716C99.8065 73.4735 105.523 79.65 105.734 85.9328C105.768 85.8639 105.8 85.795 105.833 85.7262C105.892 85.0232 105.876 84.3173 105.793 83.6164C104.8 77.8785 99.359 72.4931 91.8096 70.4694C82.9157 68.0861 74.2283 71.2027 71.509 77.4774C71.51 77.5838 71.5121 77.6911 71.5161 77.7975C74.4622 71.8469 82.9309 68.9491 91.594 71.2716Z" fill="#2C2E35"/>
<path d="M91.1808 72.8132C99.0815 74.9311 104.671 80.7277 105.273 86.7583C105.335 86.6581 105.397 86.5558 105.456 86.4524C105.457 86.021 105.431 85.5885 105.38 85.158C104.386 79.4201 98.9469 74.0357 91.3964 72.011C82.9348 69.7432 74.6605 72.4546 71.5342 78.1257C71.5433 78.2513 71.5544 78.3769 71.5676 78.5014C74.866 73.1211 82.9358 70.6031 91.1808 72.8132Z" fill="#2C2E35"/>
<path d="M90.7689 74.3547C98.3264 76.3815 103.771 81.775 104.755 87.52C104.842 87.4014 104.929 87.283 105.012 87.1614C105 87.0075 104.985 86.8535 104.967 86.6995C103.974 80.9627 98.534 75.5773 90.9835 73.5536C82.9329 71.3951 75.0524 73.744 71.6123 78.862C71.6315 78.9967 71.6538 79.1334 71.6781 79.2681C75.2499 74.4266 82.9289 72.253 90.7689 74.3547Z" fill="#2C2E35"/>
<path d="M90.3385 75.9581C97.5215 77.8836 102.794 82.8496 104.145 88.2675C104.252 88.1469 104.357 88.0244 104.459 87.8998C103.287 82.3148 97.9274 77.133 90.5541 75.1559C82.9257 73.1119 75.4492 75.1134 71.76 79.6834C71.7904 79.8272 71.8238 79.9701 71.8602 80.1129C75.6486 75.8082 82.9217 73.9698 90.3385 75.9581Z" fill="#2C2E35"/>
<path d="M89.8608 77.7467C96.5983 79.5526 101.656 84.0356 103.371 89.0563C103.494 88.9429 103.614 88.8274 103.731 88.7099C102.173 83.5058 97.0154 78.8051 90.0744 76.9445C82.9208 75.0272 75.9018 76.668 72.0122 80.6496C72.0588 80.7985 72.1074 80.9484 72.159 81.0973C76.1114 77.375 82.9228 75.8871 89.8608 77.7467Z" fill="#2C2E35"/>
<path d="M89.3971 79.4737C95.6841 81.1592 100.506 85.1731 102.518 89.7807C102.657 89.6723 102.794 89.5619 102.928 89.4495C101.047 84.6454 96.1113 80.4137 89.6127 78.6716C82.9289 76.8808 76.3625 78.1955 72.3574 81.622C72.4192 81.777 72.484 81.933 72.5538 82.0869C76.5872 78.9126 82.938 77.7417 89.3971 79.4737Z" fill="#2C2E35"/>
<path d="M88.9516 81.1387C94.7769 82.6995 99.3459 86.2618 101.585 90.4419C101.743 90.3396 101.897 90.2352 102.049 90.1279C99.9108 85.7381 95.2163 81.9581 89.1662 80.3365C82.9531 78.6714 76.8413 79.6913 72.7937 82.5952C72.8737 82.7573 72.9567 82.9173 73.0427 83.0773C77.0863 80.4196 82.9723 79.5353 88.9516 81.1387Z" fill="#2C2E35"/>
<path d="M88.506 82.803C93.8393 84.2341 98.1197 87.3406 100.523 91.0649C100.702 90.9687 100.879 90.8714 101.052 90.7702C98.7191 86.822 94.2949 83.4968 88.7206 82.0018C82.9996 80.4683 77.3646 81.2118 73.3484 83.6062C73.4496 83.7743 73.5539 83.9404 73.6632 84.1065C77.6369 81.9532 83.033 81.3363 88.506 82.803Z" fill="#2C2E35"/>
<path d="M65.0083 98.6977C63.9261 102.743 62.8428 106.786 61.7595 110.831C61.3515 112.354 62.3062 113.802 63.7864 114.341C61.8112 113.601 60.5143 112.184 59.8745 110.702C56.5001 102.891 53.4771 95.3157 51.1415 87.6099C50.8125 86.5231 51.1516 85.2661 51.5131 83.9463C52.6905 79.6497 53.8122 75.3035 54.9137 70.9877C55.1233 70.1673 55.593 70.0741 55.9666 70.8641C59.1212 77.5369 61.9246 84.784 64.6358 92.6509C65.3252 94.6483 65.5712 96.672 65.0083 98.6977Z" fill="#9395A4"/>
<path d="M68.3026 96.5283C76.1041 98.2755 85.0253 100.478 92.8117 103.127C94.304 103.634 99.8985 104.837 99.1726 107.545L95.7183 120.442C95.3113 121.964 95.372 123.074 93.1782 122.645C83.3994 120.73 72.9677 117.693 63.7863 114.342C62.3061 113.802 61.3514 112.354 61.7594 110.831L65.0082 98.6978C65.4162 97.1755 66.7647 96.1839 68.3026 96.5283Z" fill="#888B9A"/>
<path d="M95.7183 120.442L95.773 120.24L95.8266 120.039L95.8803 119.837L95.9339 119.636L95.9876 119.434L96.0423 119.233L96.0595 119.169L99.1726 107.544C99.6596 105.919 100.751 104.863 101.935 103.908C108.238 98.8193 114.792 94.1702 121.501 89.7653C122.51 89.1029 123.2 89.2274 122.865 90.4216C121.584 94.9805 120.381 99.5607 119.19 104.145C118.888 105.302 118.3 106.396 117.279 107.251C110.886 112.612 104.029 117.185 97.16 121.624C96.2387 122.221 95.2961 122.693 94.2341 122.727C95.365 122.62 95.3913 121.664 95.7183 120.442Z" fill="#6D6E72"/>
<path d="M56.5955 68.6481C56.8972 68.3919 57.1999 68.1366 57.5026 67.8824C57.376 68.2602 57.2586 68.642 57.1553 69.03C56.8739 70.0793 56.6866 71.1378 56.5904 72.1993C56.3829 71.7526 56.1763 71.3069 55.9668 70.8643C55.7045 70.3092 55.3948 70.1907 55.1609 70.4521C55.5233 69.7471 56.0073 69.1495 56.5955 68.6481Z" fill="#454C54"/>
<path d="M72.4131 97.4694C71.018 97.1432 69.6432 96.8292 68.3028 96.5284C66.765 96.184 65.4165 97.1756 65.0085 98.698C65.5714 96.6722 65.3253 94.6485 64.6359 92.6511C64.4354 92.0688 64.234 91.4884 64.0315 90.9131C66.3732 93.3743 69.1978 95.5996 72.4131 97.4694Z" fill="url(#paint3_linear_2_35)"/>
<path d="M104.017 102.251C103.321 102.798 102.626 103.35 101.936 103.908C100.751 104.863 99.6598 105.92 99.1729 107.545C99.7854 105.256 95.8876 104.044 93.7646 103.416C97.3617 103.479 100.82 103.074 104.017 102.251Z" fill="url(#paint4_linear_2_35)"/>
<path d="M122.272 85.5173C122.794 86.7672 123.158 88.1082 122.947 89.7805C122.833 89.2649 122.35 89.2882 121.666 89.6782L120.455 90.4702C121.318 88.8416 121.913 87.1886 122.272 85.5173Z" fill="#A9ADBA"/>
<path d="M71.0049 97.6365C70.9674 97.597 70.928 97.5575 70.8905 97.517M70.6951 97.3113C70.6556 97.2688 70.6161 97.2263 70.5767 97.1827" stroke="#6B707C" stroke-width="0.1"/>
<path d="M97.81 105.049L97.7614 105.071M97.57 105.152C97.5083 105.178 97.4455 105.204 97.3827 105.23M97.1479 105.323C97.0993 105.341 97.0517 105.359 97.0031 105.378M70.5593 99.3014C70.5208 99.2619 70.4823 99.2214 70.4439 99.1819M70.2495 98.9763C70.21 98.9338 70.1695 98.8912 70.13 98.8487M69.9538 98.6532C69.9103 98.6056 69.8688 98.558 69.8263 98.5094C69.8688 98.557 69.9113 98.6056 69.9538 98.6532ZM69.6704 98.3281C69.6248 98.2754 69.5793 98.2227 69.5357 98.17C69.5803 98.2227 69.6248 98.2754 69.6704 98.3281ZM69.3899 97.9938C69.3484 97.9422 69.3059 97.8915 69.2644 97.8388C69.3059 97.8905 69.3484 97.9422 69.3899 97.9938Z" stroke="#6B707C" stroke-width="0.1"/>
<path d="M97.9445 106.451C97.8615 106.491 97.7775 106.53 97.6924 106.569M97.5416 106.638C97.4667 106.671 97.3917 106.704 97.3158 106.736M97.1245 106.817C97.0617 106.842 96.9989 106.869 96.9372 106.894M96.7013 106.988C96.6537 107.005 96.6051 107.025 96.5575 107.044M70.1137 100.967C70.0742 100.927 70.0357 100.888 69.9973 100.847M69.8029 100.642C69.7634 100.599 69.7239 100.555 69.6844 100.513M69.5073 100.318C69.4648 100.27 69.4222 100.223 69.3807 100.175M69.2238 99.9933C69.1793 99.9407 69.1337 99.888 69.0892 99.8353M68.9444 99.6591C68.9019 99.6074 68.8604 99.5558 68.8188 99.5041M98.7149 106.061C98.6259 106.11 98.5357 106.157 98.4456 106.203C98.5368 106.157 98.6259 106.11 98.7149 106.061ZM98.3333 106.261C98.2462 106.304 98.1591 106.348 98.0711 106.391C98.1591 106.347 98.2462 106.304 98.3333 106.261Z" stroke="#6B707C" stroke-width="0.1"/>
<path d="M249.008 56.7381L223.508 84.7381L228.008 119.738H207.008L204.508 84.7381L192.508 119.738H173.008L194.008 56.7381H213.508L204.508 84.7381L230.008 56.7381H249.008Z" fill="#0C5580"/>
<path d="M137.008 56.7381L116.008 119.738H135.008L150.008 73.7381H157.008C161.471 77.3696 158.008 83.7381 149.508 83.2381L144.008 99.2381L146.508 119.738H166.508L164.508 93.7381C190.508 76.2381 177.508 56.2381 168.008 56.7381H137.008Z" fill="#0C5580"/>
<path fill-rule="evenodd" clip-rule="evenodd" d="M4.00806 74.2381L10.0081 56.7381H58.0081L52.5081 74.2381H38.0081L36.8158 77.7381H17.3157L18.5081 74.2381H4.00806ZM14.4201 86.2381L16.4641 80.2381H35.9641L33.9201 86.2381H14.4201ZM11.5245 94.7381L13.5685 88.7381H33.0685L31.0245 94.7381H11.5245ZM8.62894 103.238L10.6729 97.2381H30.1729L28.1289 103.238H8.62894ZM5.73333 111.738L7.77729 105.738H27.2773L25.2333 111.738H5.73333ZM4.88168 114.238H24.3817L22.5081 119.738H3.00806L4.88168 114.238Z" fill="#0C5580"/>
<defs>
<linearGradient id="paint0_linear_2_35" x1="70.0081" y1="58.2381" x2="111.508" y2="97.2381" gradientUnits="userSpaceOnUse">
<stop stop-color="#656974"/>
<stop offset="1" stop-color="#89919E"/>
</linearGradient>
<linearGradient id="paint1_linear_2_35" x1="85.0078" y1="61.7381" x2="98.0078" y2="92.2381" gradientUnits="userSpaceOnUse">
<stop stop-color="#4E545E"/>
<stop offset="1" stop-color="#6F737F"/>
</linearGradient>
<linearGradient id="paint2_linear_2_35" x1="72.0081" y1="62.7381" x2="107.008" y2="92.2381" gradientUnits="userSpaceOnUse">
<stop stop-color="#71757E"/>
<stop offset="1" stop-color="#72767F"/>
</linearGradient>
<linearGradient id="paint3_linear_2_35" x1="65.0081" y1="92.7381" x2="67.0081" y2="96.2381" gradientUnits="userSpaceOnUse">
<stop stop-color="#5A5E69"/>
<stop offset="1" stop-color="#5D646E"/>
</linearGradient>
<linearGradient id="paint4_linear_2_35" x1="96.5081" y1="103.238" x2="100.508" y2="105.238" gradientUnits="userSpaceOnUse">
<stop stop-color="#5E646F"/>
<stop offset="1" stop-color="#5A646E"/>
</linearGradient>
</defs>
</svg>
