<svg width="246" height="81" viewBox="0 0 246 81" fill="none" xmlns="http://www.w3.org/2000/svg">
<rect width="239" height="80" transform="translate(7 0.738159)" fill="url(#paint0_linear_9_34)"/>
<path d="M31.8744 46.2538C31.8744 47.9725 31.144 49.371 29.683 50.4491C28.2299 51.5194 26.2533 52.0546 23.7533 52.0546C22.308 52.0546 21.0463 51.9296 19.9682 51.6796C18.8979 51.4218 17.894 51.0975 16.9565 50.7069V46.5233H17.4486C18.3783 47.2655 19.4174 47.8358 20.5658 48.2343C21.7221 48.6327 22.8315 48.8319 23.894 48.8319C24.1674 48.8319 24.5268 48.8085 24.9721 48.7616C25.4174 48.7147 25.7807 48.6366 26.0619 48.5272C26.4057 48.3866 26.6869 48.2108 26.9057 47.9999C27.1322 47.7889 27.2455 47.4764 27.2455 47.0624C27.2455 46.6796 27.0815 46.3514 26.7533 46.078C26.433 45.7968 25.9604 45.5819 25.3354 45.4335C24.6791 45.2772 23.9838 45.1327 23.2494 44.9999C22.5229 44.8593 21.8393 44.6835 21.1986 44.4725C19.7299 43.996 18.6713 43.3514 18.0229 42.5389C17.3822 41.7186 17.0619 40.703 17.0619 39.4921C17.0619 37.8671 17.7885 36.5428 19.2416 35.5194C20.7025 34.4882 22.5775 33.9725 24.8666 33.9725C26.015 33.9725 27.1479 34.0858 28.265 34.3124C29.39 34.5311 30.3627 34.8085 31.183 35.1444V39.1639H30.7025C29.9994 38.6014 29.1361 38.1327 28.1127 37.7577C27.0971 37.3749 26.058 37.1835 24.9955 37.1835C24.6205 37.1835 24.2455 37.2108 23.8705 37.2655C23.5033 37.3124 23.1479 37.4061 22.8041 37.5468C22.4994 37.6639 22.2377 37.8436 22.019 38.0858C21.8002 38.3202 21.6908 38.5897 21.6908 38.8944C21.6908 39.3553 21.8666 39.7108 22.2182 39.9608C22.5697 40.203 23.2338 40.4257 24.2104 40.6288C24.851 40.7616 25.4643 40.8905 26.0502 41.0155C26.644 41.1405 27.2807 41.3124 27.9604 41.5311C29.2963 41.9686 30.2807 42.5663 30.9135 43.3241C31.5541 44.0741 31.8744 45.0507 31.8744 46.2538ZM52.0809 43.0194C52.0809 45.8007 51.284 48.0116 49.6903 49.6522C48.0965 51.285 45.8934 52.1014 43.0809 52.1014C40.2762 52.1014 38.077 51.285 36.4833 49.6522C34.8895 48.0116 34.0926 45.8007 34.0926 43.0194C34.0926 40.2147 34.8895 37.9999 36.4833 36.3749C38.077 34.7421 40.2762 33.9257 43.0809 33.9257C45.8778 33.9257 48.077 34.7421 49.6786 36.3749C51.2801 37.9999 52.0809 40.2147 52.0809 43.0194ZM46.1161 47.4374C46.5536 46.9061 46.8778 46.2811 47.0887 45.5624C47.2997 44.8358 47.4051 43.9843 47.4051 43.0077C47.4051 41.9608 47.284 41.0702 47.0419 40.3358C46.7997 39.6014 46.4833 39.0077 46.0926 38.5546C45.6942 38.0858 45.2333 37.746 44.7098 37.535C44.1942 37.3241 43.6551 37.2186 43.0926 37.2186C42.5223 37.2186 41.9833 37.3202 41.4755 37.5233C40.9755 37.7264 40.5145 38.0624 40.0926 38.5311C39.702 38.9686 39.3817 39.5741 39.1317 40.3475C38.8895 41.1132 38.7684 42.0038 38.7684 43.0194C38.7684 44.0585 38.8856 44.9452 39.12 45.6796C39.3622 46.4061 39.6786 46.9999 40.0692 47.4608C40.4598 47.9218 40.9169 48.2616 41.4403 48.4803C41.9637 48.6991 42.5145 48.8085 43.0926 48.8085C43.6708 48.8085 44.2215 48.6991 44.745 48.4803C45.2684 48.2538 45.7255 47.9061 46.1161 47.4374ZM73.9632 51.7382H69.4866V40.0546L66.2523 47.6366H63.1468L59.9124 40.0546V51.7382H55.6702V34.2889H60.8968L64.8226 43.0428L68.7366 34.2889H73.9632V51.7382ZM95.5408 43.0194C95.5408 45.8007 94.7439 48.0116 93.1502 49.6522C91.5564 51.285 89.3533 52.1014 86.5408 52.1014C83.7361 52.1014 81.5369 51.285 79.9431 49.6522C78.3494 48.0116 77.5525 45.8007 77.5525 43.0194C77.5525 40.2147 78.3494 37.9999 79.9431 36.3749C81.5369 34.7421 83.7361 33.9257 86.5408 33.9257C89.3377 33.9257 91.5369 34.7421 93.1385 36.3749C94.74 37.9999 95.5408 40.2147 95.5408 43.0194ZM89.576 47.4374C90.0135 46.9061 90.3377 46.2811 90.5486 45.5624C90.7595 44.8358 90.865 43.9843 90.865 43.0077C90.865 41.9608 90.7439 41.0702 90.5017 40.3358C90.2595 39.6014 89.9431 39.0077 89.5525 38.5546C89.1541 38.0858 88.6931 37.746 88.1697 37.535C87.6541 37.3241 87.115 37.2186 86.5525 37.2186C85.9822 37.2186 85.4431 37.3202 84.9353 37.5233C84.4353 37.7264 83.9744 38.0624 83.5525 38.5311C83.1619 38.9686 82.8416 39.5741 82.5916 40.3475C82.3494 41.1132 82.2283 42.0038 82.2283 43.0194C82.2283 44.0585 82.3455 44.9452 82.5799 45.6796C82.822 46.4061 83.1385 46.9999 83.5291 47.4608C83.9197 47.9218 84.3767 48.2616 84.9002 48.4803C85.4236 48.6991 85.9744 48.8085 86.5525 48.8085C87.1306 48.8085 87.6814 48.6991 88.2049 48.4803C88.7283 48.2538 89.1853 47.9061 89.576 47.4374ZM113.099 46.2538C113.099 47.9725 112.368 49.371 110.907 50.4491C109.454 51.5194 107.478 52.0546 104.978 52.0546C103.532 52.0546 102.271 51.9296 101.193 51.6796C100.122 51.4218 99.1184 51.0975 98.1809 50.7069V46.5233H98.6731C99.6028 47.2655 100.642 47.8358 101.79 48.2343C102.947 48.6327 104.056 48.8319 105.118 48.8319C105.392 48.8319 105.751 48.8085 106.197 48.7616C106.642 48.7147 107.005 48.6366 107.286 48.5272C107.63 48.3866 107.911 48.2108 108.13 47.9999C108.357 47.7889 108.47 47.4764 108.47 47.0624C108.47 46.6796 108.306 46.3514 107.978 46.078C107.657 45.7968 107.185 45.5819 106.56 45.4335C105.904 45.2772 105.208 45.1327 104.474 44.9999C103.747 44.8593 103.064 44.6835 102.423 44.4725C100.954 43.996 99.8957 43.3514 99.2473 42.5389C98.6067 41.7186 98.2864 40.703 98.2864 39.4921C98.2864 37.8671 99.0129 36.5428 100.466 35.5194C101.927 34.4882 103.802 33.9725 106.091 33.9725C107.239 33.9725 108.372 34.0858 109.489 34.3124C110.614 34.5311 111.587 34.8085 112.407 35.1444V39.1639H111.927C111.224 38.6014 110.361 38.1327 109.337 37.7577C108.322 37.3749 107.282 37.1835 106.22 37.1835C105.845 37.1835 105.47 37.2108 105.095 37.2655C104.728 37.3124 104.372 37.4061 104.029 37.5468C103.724 37.6639 103.462 37.8436 103.243 38.0858C103.025 38.3202 102.915 38.5897 102.915 38.8944C102.915 39.3553 103.091 39.7108 103.443 39.9608C103.794 40.203 104.458 40.4257 105.435 40.6288C106.075 40.7616 106.689 40.8905 107.275 41.0155C107.868 41.1405 108.505 41.3124 109.185 41.5311C110.521 41.9686 111.505 42.5663 112.138 43.3241C112.779 44.0741 113.099 45.0507 113.099 46.2538Z" fill="#C4C4C4"/>
<path d="M172.054 57.3186C168.437 56.4919 163.106 54.8812 161.795 54.2255C161.002 53.8264 160.671 53.2705 159.475 50.3912C157.933 46.6566 156.881 43.535 157.011 43.0218C157.414 41.2686 158.553 37.1206 158.711 36.75C158.97 36.2226 161.91 33.8992 165.109 31.7184C167.53 30.0649 167.904 29.8938 168.942 29.8796C170.224 29.8511 179.172 32.3028 180.945 33.158C181.953 33.6427 182.299 34.0275 182.803 35.3246C185.094 41.012 185.93 43.2784 185.988 43.9768C186.045 44.6183 185.916 45.2882 185.239 47.7542C184.792 49.4076 184.331 50.8901 184.215 51.0754C183.567 52.0589 175.584 57.618 174.648 57.732C174.36 57.7748 173.264 57.5895 172.054 57.3186ZM175.844 45.5163C176.377 45.3595 176.809 45.1599 176.809 45.0602C176.809 44.9746 176.391 44.5185 175.887 44.0481C174.259 42.4944 172.054 41.6677 169.604 41.6677C168.135 41.6677 166.29 42.1096 166.29 42.4517C166.29 42.5514 166.636 42.9648 167.054 43.3639C169.345 45.6018 172.789 46.4428 175.844 45.5163Z" fill="url(#paint1_linear_9_34)"/>
<path fill-rule="evenodd" clip-rule="evenodd" d="M179.423 41.8103C179.153 44.1382 176.333 46.7382 170.747 45.5985C166.667 44.1382 164.049 40.7382 165.818 37.551C166.264 36.7382 168.479 33.9382 173.917 35.2848C179.153 36.9382 179.757 40.7382 179.423 41.8103ZM173.939 33.7629C169.522 32.5868 165.333 34.2707 164.451 37.5382C163.57 40.8061 166.33 44.4227 170.747 45.5985C175.164 46.7746 179.681 45.0783 180.562 41.8103C181.444 38.5424 178.356 34.9387 173.939 33.7629Z" fill="url(#paint2_linear_9_34)" fill-opacity="0.5"/>
<path fill-rule="evenodd" clip-rule="evenodd" d="M182.202 42.3054C181.138 46.2511 175.95 48.2991 170.617 46.8795C165.284 45.4594 161.822 41.1086 162.886 37.1628C163.95 33.2171 169.138 31.1687 174.471 32.5887C179.804 34.0084 183.266 38.3596 182.202 42.3054ZM174.14 33.8163C169.723 32.6402 165.426 34.3369 164.545 37.6044C163.664 40.8724 166.531 44.4761 170.948 45.6519C175.365 46.828 179.662 45.1317 180.543 41.8637C181.425 38.5958 178.558 34.9921 174.14 33.8163Z" fill="url(#paint3_linear_9_34)" fill-opacity="0.5"/>
<path d="M173.753 35.2505C177.601 36.2743 180.098 39.4134 179.331 42.2599C178.993 43.511 178.081 44.498 176.837 45.1239C175.854 43.6917 174.153 42.4978 172.048 41.937C169.892 41.3634 167.769 41.5753 166.184 42.373C165.37 41.1879 165.048 39.8392 165.396 38.5504C166.163 35.7039 169.906 34.2259 173.753 35.2505Z" fill="#45484D"/>
<path d="M179.13 42.8293C178.699 43.8122 177.885 44.5962 176.838 45.1241C175.854 43.6919 174.153 42.4979 172.048 41.9372C169.906 41.3671 167.797 41.5726 166.215 42.3581C171.402 36.3952 177.721 36.5483 179.13 42.8293Z" fill="#606B74"/>
<path d="M173.719 35.7699C177.127 36.6771 179.467 39.2712 179.417 41.8609L179.418 41.8536C179.424 41.8123 179.431 41.7705 179.436 41.7288L179.438 41.7179C179.442 41.6778 179.447 41.6368 179.451 41.5967L179.453 41.5801C179.456 41.542 179.459 41.504 179.461 41.4655L179.463 41.4404C179.465 41.4059 179.466 41.3715 179.467 41.337L179.468 41.2973C179.469 41.2678 179.469 41.2382 179.469 41.209C179.469 41.1908 179.469 41.173 179.469 41.1547C179.468 41.1312 179.467 41.1069 179.467 41.0834C179.466 41.0583 179.465 41.0336 179.464 41.0085C179.463 40.9919 179.462 40.9748 179.461 40.9578C179.459 40.9282 179.457 40.8991 179.455 40.8699L179.453 40.8521L179.451 40.8338C179.448 40.7917 179.444 40.75 179.438 40.7078C179.039 38.4127 176.848 36.2593 173.806 35.4495C169.959 34.4248 166.206 35.9389 165.427 38.8304C165.313 39.2509 165.269 39.678 165.288 40.1034L165.287 40.0941L165.286 40.0851C165.282 40.0491 165.278 40.0126 165.275 39.9762L165.274 39.9672L165.273 39.9579L165.272 39.949C165.27 39.9158 165.267 39.8818 165.265 39.8485C165.264 39.8339 165.264 39.8194 165.263 39.8052C165.261 39.778 165.26 39.7513 165.259 39.7242C165.259 39.7039 165.259 39.6832 165.258 39.6626C165.258 39.6399 165.258 39.6168 165.258 39.5937C165.258 39.5698 165.258 39.5455 165.259 39.522C165.28 39.3976 165.307 39.274 165.34 39.1509C166.12 36.2597 169.872 34.7457 173.719 35.7699Z" fill="#2C2E35"/>
<path d="M173.533 36.4608C176.94 37.3679 179.281 39.9621 179.23 42.5518C179.293 42.1689 179.299 41.7824 179.252 41.3987C178.852 39.1035 176.661 36.9498 173.62 36.1403C169.804 35.1242 166.081 36.6058 165.26 39.452C165.259 39.4722 165.259 39.4921 165.259 39.5119C166.226 36.8371 169.835 35.4763 173.533 36.4608Z" fill="#2C2E35"/>
<path d="M173.347 37.1515C176.655 38.0323 178.957 40.5029 179.042 43.016C179.056 42.9885 179.069 42.9609 179.082 42.9334C179.106 42.6522 179.1 42.3698 179.066 42.0894C178.666 39.7943 176.475 37.6401 173.434 36.8306C169.852 35.8773 166.353 37.124 165.257 39.6338C165.258 39.6764 165.259 39.7193 165.26 39.7619C166.447 37.3816 169.858 36.2225 173.347 37.1515Z" fill="#2C2E35"/>
<path d="M173.181 37.7682C176.363 38.6154 178.614 40.934 178.857 43.3463C178.882 43.3062 178.907 43.2652 178.93 43.2239C178.931 43.0513 178.92 42.8783 178.9 42.7061C178.5 40.411 176.309 38.2572 173.268 37.4473C169.859 36.5402 166.527 37.6248 165.267 39.8932C165.271 39.9434 165.276 39.9937 165.281 40.0435C166.609 37.8914 169.86 36.8842 173.181 37.7682Z" fill="#2C2E35"/>
<path d="M173.015 38.3848C176.059 39.1955 178.252 41.3529 178.648 43.6509C178.683 43.6035 178.718 43.5561 178.752 43.5075C178.747 43.4459 178.741 43.3843 178.733 43.3227C178.333 41.028 176.142 38.8738 173.101 38.0643C169.859 37.2009 166.684 38.1405 165.299 40.1877C165.307 40.2416 165.316 40.2963 165.325 40.3501C166.764 38.4135 169.857 37.5441 173.015 38.3848Z" fill="#2C2E35"/>
<path d="M172.841 39.0261C175.735 39.7963 177.858 41.7828 178.402 43.9499C178.445 43.9017 178.488 43.8526 178.529 43.8028C178.057 41.5688 175.898 39.4961 172.928 38.7053C169.856 37.8877 166.844 38.6882 165.358 40.5163C165.371 40.5738 165.384 40.6309 165.399 40.6881C166.925 38.9662 169.854 38.2308 172.841 39.0261Z" fill="#2C2E35"/>
<path d="M172.649 39.7416C175.363 40.464 177.4 42.2572 178.091 44.2655C178.14 44.2201 178.189 44.1739 178.235 44.1269C177.608 42.0453 175.531 40.165 172.735 39.4207C169.854 38.6538 167.027 39.3101 165.46 40.9028C165.479 40.9623 165.498 41.0223 165.519 41.0818C167.111 39.5929 169.855 38.9978 172.649 39.7416Z" fill="#2C2E35"/>
<path d="M172.462 40.4324C174.994 41.1066 176.937 42.7122 177.747 44.5552C177.803 44.5118 177.858 44.4677 177.912 44.4227C177.154 42.5011 175.167 40.8084 172.549 40.1115C169.857 39.3952 167.212 39.9211 165.599 41.2917C165.624 41.3537 165.65 41.4161 165.678 41.4777C167.303 40.208 169.861 39.7396 172.462 40.4324Z" fill="#2C2E35"/>
<path d="M172.283 41.0984C174.629 41.7227 176.469 43.1476 177.371 44.8197C177.435 44.7788 177.497 44.737 177.558 44.6941C176.697 42.9382 174.806 41.4262 172.369 40.7775C169.867 40.1115 167.405 40.5195 165.775 41.681C165.807 41.7458 165.84 41.8098 165.875 41.8739C167.504 40.8108 169.875 40.4571 172.283 41.0984Z" fill="#2C2E35"/>
<path d="M172.103 41.7641C174.251 42.3365 175.976 43.5791 176.944 45.0688C177.016 45.0304 177.087 44.9915 177.156 44.951C176.217 43.3717 174.435 42.0416 172.19 41.4436C169.885 40.8302 167.616 41.1276 165.998 42.0854C166.039 42.1526 166.081 42.2191 166.125 42.2855C167.725 41.4242 169.899 41.1774 172.103 41.7641Z" fill="#2C2E35"/>
<path d="M162.639 48.122C162.203 49.7402 161.767 51.3575 161.33 52.9753C161.166 53.5846 161.551 54.1635 162.147 54.3795C161.351 54.0833 160.829 53.5165 160.571 52.9238C159.212 49.7993 157.994 46.7692 157.054 43.6869C156.921 43.2521 157.058 42.7494 157.203 42.2214C157.678 40.5028 158.129 38.7643 158.573 37.038C158.658 36.7098 158.847 36.6726 158.997 36.9886C160.268 39.6577 161.397 42.5565 162.489 45.7033C162.767 46.5022 162.866 47.3117 162.639 48.122Z" fill="#9395A4"/>
<path d="M163.966 47.2542C167.108 47.9531 170.701 48.8343 173.838 49.8938C174.439 50.0963 176.692 50.5776 176.4 51.661L175.008 56.8197C174.844 57.4287 174.869 57.8727 173.985 57.7009C170.047 56.9348 165.845 55.7202 162.147 54.3795C161.551 54.1636 161.166 53.5846 161.33 52.9753L162.639 48.1221C162.803 47.5131 163.346 47.1165 163.966 47.2542Z" fill="#888B9A"/>
<path d="M175.008 56.8197L175.03 56.7391L175.052 56.6584L175.074 56.5778L175.095 56.4972L175.117 56.4166L175.139 56.3359L175.146 56.3104L176.4 51.6606C176.596 51.0107 177.035 50.5881 177.512 50.2061C180.051 48.1706 182.691 46.311 185.393 44.549C185.8 44.2841 186.077 44.3339 185.942 44.8116C185.426 46.6351 184.942 48.4672 184.462 50.3009C184.341 50.7636 184.104 51.2011 183.693 51.5435C181.118 53.6879 178.356 55.5167 175.589 57.2925C175.218 57.5311 174.838 57.7199 174.411 57.7337C174.866 57.6908 174.877 57.3087 175.008 56.8197Z" fill="#6D6E72"/>
<path d="M159.25 36.1021C159.372 35.9996 159.494 35.8975 159.616 35.7958C159.565 35.947 159.518 36.0997 159.476 36.2549C159.363 36.6746 159.287 37.098 159.248 37.5226C159.165 37.3439 159.082 37.1656 158.997 36.9886C158.892 36.7666 158.767 36.7192 158.673 36.8237C158.819 36.5417 159.014 36.3027 159.25 36.1021Z" fill="#454C54"/>
<path d="M165.621 47.6306C165.06 47.5002 164.506 47.3746 163.966 47.2542C163.346 47.1165 162.803 47.5131 162.639 48.1221C162.866 47.3118 162.767 46.5023 162.489 45.7033C162.408 45.4704 162.327 45.2382 162.245 45.0081C163.189 45.9926 164.326 46.8827 165.621 47.6306Z" fill="url(#paint4_linear_9_34)"/>
<path d="M178.351 49.5433C178.07 49.7621 177.791 49.9829 177.512 50.2061C177.035 50.5881 176.596 51.0107 176.4 51.661C176.646 50.7453 175.076 50.2604 174.221 50.0092C175.67 50.0343 177.063 49.8727 178.351 49.5433Z" fill="url(#paint5_linear_9_34)"/>
<path d="M185.703 42.8498C185.914 43.3497 186.061 43.8862 185.975 44.555C185.93 44.3488 185.735 44.3581 185.459 44.5141L184.972 44.8309C185.319 44.1795 185.559 43.5183 185.703 42.8498Z" fill="#A9ADBA"/>
<path d="M165.054 47.6975C165.039 47.6817 165.023 47.6659 165.008 47.6497M164.93 47.5674C164.914 47.5504 164.898 47.5334 164.882 47.516" stroke="#6B707C" stroke-width="0.1"/>
<path d="M175.851 50.6627L175.831 50.6712M175.754 50.7036C175.729 50.7141 175.704 50.7247 175.679 50.7348M175.584 50.7721C175.565 50.7794 175.545 50.7867 175.526 50.7939M164.875 48.3635C164.859 48.3477 164.844 48.3315 164.828 48.3157M164.75 48.2334C164.734 48.2164 164.718 48.1994 164.702 48.1824M164.631 48.1042C164.613 48.0851 164.597 48.0661 164.58 48.0466C164.597 48.0657 164.614 48.0851 164.631 48.1042ZM164.517 47.9741C164.498 47.9531 164.48 47.932 164.463 47.9109C164.48 47.932 164.498 47.9531 164.517 47.9741ZM164.404 47.8404C164.387 47.8198 164.37 47.7995 164.353 47.7784C164.37 47.7991 164.387 47.8198 164.404 47.8404Z" stroke="#6B707C" stroke-width="0.1"/>
<path d="M175.905 51.2235C175.872 51.2393 175.838 51.2551 175.803 51.2705M175.743 51.298C175.713 51.3114 175.682 51.3244 175.652 51.3373M175.575 51.3697C175.549 51.3799 175.524 51.3904 175.499 51.4005M175.404 51.4382C175.385 51.4451 175.366 51.4528 175.346 51.4605M164.695 49.0296C164.679 49.0138 164.664 48.998 164.648 48.9818M164.57 48.8996C164.554 48.8825 164.538 48.8651 164.522 48.8481M164.451 48.7703C164.434 48.7509 164.417 48.7322 164.4 48.7128M164.337 48.6403C164.319 48.6192 164.301 48.5981 164.283 48.5771M164.224 48.5066C164.207 48.4859 164.191 48.4652 164.174 48.4446M176.215 51.0675C176.179 51.0869 176.143 51.1056 176.107 51.1242C176.144 51.1056 176.179 51.0869 176.215 51.0675ZM176.062 51.1473C176.027 51.1647 175.991 51.1822 175.956 51.1992C175.991 51.1817 176.027 51.1647 176.062 51.1473Z" stroke="#6B707C" stroke-width="0.1"/>
<path d="M238 30.16L227.53 41.9725L229.378 56.7381H220.756L219.73 41.9725L214.803 56.7381H206.797L215.419 30.16H223.425L219.73 41.9725L230.199 30.16H238Z" fill="#0C5580"/>
<path d="M192.016 30.16L183.394 56.7381H191.195L197.354 37.3319H200.228C202.06 38.8639 200.638 41.5506 197.148 41.3397L194.89 48.0897L195.917 56.7381H204.128L203.307 45.7694C213.982 38.3866 208.644 29.9491 204.744 30.16H192.016Z" fill="#0C5580"/>
<path fill-rule="evenodd" clip-rule="evenodd" d="M137.411 37.5428L139.874 30.16H159.581L157.323 37.5428H151.37L150.88 39.0194H142.874L143.364 37.5428H137.411ZM141.685 42.6053L142.525 40.0741H150.531L149.692 42.6053H141.685ZM140.497 46.1913L141.336 43.66H149.342L148.503 46.1913H140.497ZM139.308 49.7772L140.147 47.246H148.153L147.314 49.7772H139.308ZM138.119 53.3632L138.958 50.8319H146.964L146.125 53.3632H138.119ZM137.769 54.4178H145.775L145.006 56.7382H137L137.769 54.4178Z" fill="#0C5580"/>
<defs>
<linearGradient id="paint0_linear_9_34" x1="119.5" y1="40" x2="119.978" y2="40" gradientUnits="userSpaceOnUse">
<stop stop-color="#0C5580"/>
<stop offset="1" stop-color="#C4C4C4"/>
</linearGradient>
<linearGradient id="paint1_linear_9_34" x1="164.653" y1="31.9381" x2="181.26" y2="47.6529" gradientUnits="userSpaceOnUse">
<stop stop-color="#656974"/>
<stop offset="1" stop-color="#89919E"/>
</linearGradient>
<linearGradient id="paint2_linear_9_34" x1="170.694" y1="33.3382" x2="175.869" y2="45.564" gradientUnits="userSpaceOnUse">
<stop stop-color="#4E545E"/>
<stop offset="1" stop-color="#6F737F"/>
</linearGradient>
<linearGradient id="paint3_linear_9_34" x1="165.458" y1="33.7382" x2="179.474" y2="45.6338" gradientUnits="userSpaceOnUse">
<stop stop-color="#71757E"/>
<stop offset="1" stop-color="#72767F"/>
</linearGradient>
<linearGradient id="paint4_linear_9_34" x1="162.639" y1="45.7381" x2="163.436" y2="47.1429" gradientUnits="userSpaceOnUse">
<stop stop-color="#5A5E69"/>
<stop offset="1" stop-color="#5D646E"/>
</linearGradient>
<linearGradient id="paint5_linear_9_34" x1="175.326" y1="49.9381" x2="176.933" y2="50.747" gradientUnits="userSpaceOnUse">
<stop stop-color="#5E646F"/>
<stop offset="1" stop-color="#5A646E"/>
</linearGradient>
</defs>
</svg>
