<svg width="248" height="105" viewBox="0 0 248 105" fill="none" xmlns="http://www.w3.org/2000/svg">
<path d="M118.679 94.7382V92.2422H105.399V83.6982H116.023V81.2022H105.399V74.1942H118.327V71.6982H102.359V94.7382H118.679ZM123.667 94.8342H127.539L131.987 87.8262L136.755 94.8342H140.307L133.555 86.0342L139.955 77.5222H136.051L131.987 84.2742L127.603 77.5222H124.019L130.419 86.0342L123.667 94.8342ZM149.261 77.7462H146.253V101.138H149.261V92.6262C150.243 94.3542 151.587 95.2182 153.293 95.2182C155.448 95.2182 157.155 94.3968 158.413 92.7542C159.651 91.1328 160.269 88.9782 160.269 86.2902C160.269 83.6235 159.661 81.4902 158.445 79.8902C157.229 78.3115 155.512 77.5222 153.293 77.5222C151.928 77.5222 150.584 78.3542 149.261 80.0182V77.7462ZM156.301 81.8742C156.963 82.9195 157.304 84.4128 157.325 86.3542C157.283 88.1675 156.899 89.6288 156.173 90.7382C155.469 91.8262 154.445 92.3702 153.101 92.3702C150.712 92.3702 149.432 90.8022 149.261 87.6662V85.7142C149.603 82.1302 150.883 80.3382 153.101 80.3382C154.552 80.3382 155.619 80.8502 156.301 81.8742ZM175.041 77.5222C173.932 77.5222 172.897 77.8848 171.937 78.6102C170.998 79.3355 170.326 80.3702 169.921 81.7142V78.3222H166.945V94.8342H169.921V85.3942C169.921 83.7302 170.337 82.4822 171.169 81.6502C172.001 80.8182 173.334 80.3702 175.169 80.3062C175.574 80.3062 175.99 80.3488 176.417 80.4342L176.449 77.5862C175.724 77.5435 175.254 77.5222 175.041 77.5222ZM196.157 87.5382C196.157 82.8235 195.069 79.8155 192.893 78.5142C191.976 78.0235 190.888 77.7782 189.629 77.7782C187.325 77.7782 185.437 78.6102 183.965 80.2742C182.493 81.9382 181.757 84.0075 181.757 86.4822C181.757 88.9782 182.483 91.0475 183.933 92.6902C185.363 94.3115 187.24 95.1222 189.565 95.1222C191.891 95.1222 193.928 94.5675 195.677 93.4582V90.3862C194.163 91.7302 192.136 92.4022 189.597 92.4022C188.168 92.4022 187.027 92.0288 186.173 91.2822C185.341 90.5568 184.84 89.3088 184.669 87.5382H196.157ZM189.597 80.6262C190.984 80.6262 191.987 80.9782 192.605 81.6822C193.203 82.3862 193.555 83.4955 193.661 85.0102H184.669C185.053 82.0875 186.675 80.6262 189.533 80.6262H189.597ZM214.726 81.5542C214.299 80.0182 213.542 78.9728 212.454 78.4182C211.366 77.8422 209.915 77.5542 208.102 77.5542C203.75 77.5542 201.574 79.1542 201.574 82.3542C201.574 83.5915 201.937 84.5622 202.662 85.2662C203.409 85.9702 204.305 86.4288 205.35 86.6422C206.374 86.8555 207.409 87.0262 208.454 87.1542C209.499 87.2822 210.385 87.5062 211.11 87.8262C211.857 88.1462 212.23 88.6582 212.23 89.3622C212.23 90.3862 211.921 91.1115 211.302 91.5382C210.683 91.9648 209.691 92.1782 208.326 92.1782C205.51 92.1782 203.942 91.4528 203.622 90.0022L201.158 90.4822C201.691 93.4262 204.081 94.8982 208.326 94.8982C210.545 94.8982 212.219 94.4288 213.35 93.4902C214.459 92.5515 215.014 91.4102 215.014 90.0662C215.014 88.7008 214.651 87.6555 213.926 86.9302C213.201 86.1835 212.326 85.6928 211.302 85.4582C210.257 85.2235 209.211 85.0315 208.166 84.8822C207.142 84.7542 206.267 84.5088 205.542 84.1462C204.817 83.7835 204.454 83.2288 204.454 82.4822C204.454 81.7142 204.646 81.1595 205.03 80.8182C205.414 80.4555 205.99 80.2422 206.758 80.1782C207.035 80.1568 207.59 80.1462 208.422 80.1462C209.275 80.1462 210.065 80.2422 210.79 80.4342C211.686 80.6475 212.283 81.2235 212.582 82.1622L214.726 81.5542ZM233.333 81.5542C232.906 80.0182 232.149 78.9728 231.061 78.4182C229.973 77.8422 228.522 77.5542 226.709 77.5542C222.357 77.5542 220.181 79.1542 220.181 82.3542C220.181 83.5915 220.544 84.5622 221.269 85.2662C222.016 85.9702 222.912 86.4288 223.957 86.6422C224.981 86.8555 226.016 87.0262 227.061 87.1542C228.106 87.2822 228.992 87.5062 229.717 87.8262C230.464 88.1462 230.837 88.6582 230.837 89.3622C230.837 90.3862 230.528 91.1115 229.909 91.5382C229.29 91.9648 228.298 92.1782 226.933 92.1782C224.117 92.1782 222.549 91.4528 222.229 90.0022L219.765 90.4822C220.298 93.4262 222.688 94.8982 226.933 94.8982C229.152 94.8982 230.826 94.4288 231.957 93.4902C233.066 92.5515 233.621 91.4102 233.621 90.0662C233.621 88.7008 233.258 87.6555 232.533 86.9302C231.808 86.1835 230.933 85.6928 229.909 85.4582C228.864 85.2235 227.818 85.0315 226.773 84.8822C225.749 84.7542 224.874 84.5088 224.149 84.1462C223.424 83.7835 223.061 83.2288 223.061 82.4822C223.061 81.7142 223.253 81.1595 223.637 80.8182C224.021 80.4555 224.597 80.2422 225.365 80.1782C225.642 80.1568 226.197 80.1462 227.029 80.1462C227.882 80.1462 228.672 80.2422 229.397 80.4342C230.293 80.6475 230.89 81.2235 231.189 82.1622L233.333 81.5542Z" fill="#939598"/>
<path d="M242.104 89.8112V88.1602H242.923C243.46 88.1602 243.729 88.4375 243.729 88.9922C243.729 89.5382 243.43 89.8112 242.832 89.8112H242.104ZM244.522 89.9282C244.713 89.6075 244.808 89.3042 244.808 89.0182V88.9402C244.808 88.5675 244.704 88.2642 244.496 88.0302C244.097 87.5882 243.504 87.3672 242.715 87.3672H241.064V92.8142H242.104V90.6302H242.689L243.885 92.7492H245.224L243.599 90.5522C244.024 90.4482 244.331 90.2402 244.522 89.9282ZM238.347 90.0322C238.347 90.8295 238.542 91.5662 238.932 92.2422C239.331 92.9182 239.868 93.4555 240.544 93.8542C241.22 94.2442 241.957 94.4392 242.754 94.4392C243.551 94.4392 244.288 94.2442 244.964 93.8542C245.64 93.4555 246.177 92.9182 246.576 92.2422C246.966 91.5662 247.161 90.8295 247.161 90.0322C247.161 89.2262 246.966 88.4852 246.576 87.8092C246.177 87.1332 245.64 86.6002 244.964 86.2102C244.288 85.8115 243.551 85.6122 242.754 85.6122C241.957 85.6122 241.22 85.8115 240.544 86.2102C239.868 86.6002 239.331 87.1332 238.932 87.8092C238.542 88.4852 238.347 89.2262 238.347 90.0322ZM238.997 90.0322C238.997 88.9922 239.365 88.1038 240.102 87.3672C240.83 86.6305 241.714 86.2622 242.754 86.2622C243.794 86.2622 244.678 86.6305 245.406 87.3672C246.143 88.1038 246.515 88.9922 246.524 90.0322H246.511C246.511 91.0635 246.143 91.9475 245.406 92.6842C244.678 93.4208 243.794 93.7892 242.754 93.7892C241.714 93.7892 240.83 93.4208 240.102 92.6842C239.365 91.9562 238.997 91.0722 238.997 90.0322Z" fill="#0C5580"/>
<path d="M85.3756 69.6894C76.3961 67.6226 63.1595 63.5958 59.904 61.9566C57.9364 60.9588 57.1136 59.569 54.1443 52.3707C50.3164 43.0343 47.7048 35.2302 48.0268 33.9474C49.0285 29.5642 51.8547 19.1944 52.2482 18.2679C52.8921 16.9494 60.1902 11.1409 68.1322 5.68868C74.1423 1.555 75.0724 1.12738 77.6482 1.09174C80.8322 1.02047 103.048 7.14972 107.449 9.28783C109.953 10.4994 110.811 11.4616 112.063 14.7044C117.752 28.9228 119.827 34.5888 119.97 36.3349C120.113 37.9385 119.791 39.6133 118.109 45.7782C117 49.9119 115.856 53.618 115.569 54.0812C113.96 56.54 94.1404 70.4378 91.815 70.7228C91.0995 70.8297 88.3806 70.3665 85.3756 69.6894ZM94.7843 40.1835C96.108 39.7915 97.1812 39.2926 97.1812 39.0432C97.1812 38.8294 96.1437 37.689 94.8916 36.5131C90.8491 32.6289 85.3756 30.562 79.2939 30.562C75.6448 30.562 71.0657 31.6667 71.0657 32.5219C71.0657 32.7714 71.9243 33.8048 72.9617 34.8026C78.6499 40.3973 87.2001 42.4998 94.7843 40.1835Z" fill="url(#paint0_linear_2_232)"/>
<path fill-rule="evenodd" clip-rule="evenodd" d="M103.672 30.9185C103 36.7382 95.9999 43.2382 82.1298 40.3889C71.9999 36.7382 65.4999 28.2382 69.893 20.2703C70.9999 18.2382 76.4999 11.2382 89.9999 14.6047C103 18.7382 104.5 28.2382 103.672 30.9185ZM90.0549 10.8C79.0886 7.85965 68.6887 12.0694 66.4999 20.2382C64.3121 28.4079 71.1636 37.4495 82.1298 40.3889C93.0961 43.3292 104.312 39.0883 106.5 30.9185C108.688 22.7488 101.022 13.7393 90.0549 10.8Z" fill="url(#paint1_linear_2_232)" fill-opacity="0.5"/>
<path fill-rule="evenodd" clip-rule="evenodd" d="M110.571 32.1561C107.929 42.0204 95.0489 47.1404 81.8087 43.5913C68.5676 40.0413 59.9723 29.1641 62.6137 19.2998C65.256 9.43549 78.1358 4.31444 91.3769 7.86454C104.617 11.4136 113.213 22.2918 110.571 32.1561ZM90.5548 10.9335C79.5885 7.99316 68.9209 12.235 66.7321 20.4038C64.5443 28.5736 71.6635 37.583 82.6298 40.5224C93.5961 43.4627 104.265 39.2218 106.453 31.0521C108.64 22.8823 101.522 13.8728 90.5548 10.9335Z" fill="url(#paint2_linear_2_232)" fill-opacity="0.5"/>
<path d="M89.594 14.519C99.147 17.0786 105.347 24.9262 103.442 32.0426C102.604 35.1704 100.339 37.6377 97.2518 39.2026C94.8099 35.6221 90.5872 32.6372 85.3602 31.2354C80.0076 29.8012 74.7361 30.3309 70.8009 32.3252C68.7812 29.3626 67.9814 25.9908 68.8449 22.7688C70.7503 15.6525 80.0421 11.9575 89.594 14.519Z" fill="#45484D"/>
<path d="M102.944 33.466C101.873 35.9232 99.8538 37.8831 97.252 39.2029C94.8101 35.6224 90.5874 32.6375 85.3604 31.2357C80.0422 29.8106 74.8061 30.3241 70.879 32.288C83.7567 17.3807 99.4448 17.7635 102.944 33.466Z" fill="#606B74"/>
<path d="M89.5102 15.8176C97.9708 18.0854 103.781 24.5708 103.655 31.045L103.658 31.0268C103.675 30.9234 103.69 30.8191 103.703 30.7148L103.707 30.6874C103.719 30.5872 103.731 30.4849 103.739 30.3846L103.745 30.3431C103.753 30.2479 103.76 30.1527 103.766 30.0564L103.77 29.9936C103.775 29.9075 103.778 29.8214 103.78 29.7354L103.783 29.6361C103.784 29.5622 103.786 29.4882 103.785 29.4153C103.785 29.3697 103.785 29.3251 103.784 29.2796C103.783 29.2208 103.781 29.16 103.78 29.1013C103.778 29.0385 103.776 28.9767 103.772 28.9139C103.77 28.8724 103.769 28.8299 103.766 28.7873C103.761 28.7134 103.756 28.6405 103.75 28.5675L103.747 28.523L103.741 28.4774C103.733 28.372 103.722 28.2677 103.709 28.1624C102.717 22.4245 97.2773 17.0411 89.7259 15.0164C80.1739 12.4549 70.8568 16.2399 68.9221 23.4688C68.6396 24.5201 68.5303 25.5877 68.5769 26.6512L68.5748 26.6279L68.5718 26.6056C68.5617 26.5155 68.5526 26.4243 68.5445 26.3331L68.5425 26.3109L68.5404 26.2876L68.5384 26.2653C68.5313 26.1822 68.5252 26.0971 68.5202 26.0141C68.5182 25.9776 68.5171 25.9412 68.5151 25.9057C68.5111 25.8379 68.508 25.771 68.506 25.7031C68.505 25.6525 68.504 25.6008 68.503 25.5492C68.502 25.4925 68.502 25.4347 68.502 25.377C68.502 25.3172 68.502 25.2565 68.504 25.1977C68.5576 24.8868 68.6245 24.5778 68.7065 24.2699C70.6422 17.0421 79.9582 13.2571 89.5102 15.8176Z" fill="#2C2E35"/>
<path d="M89.0485 17.5447C97.5071 19.8125 103.318 26.2979 103.193 32.7722C103.349 31.815 103.362 30.8487 103.246 29.8895C102.253 24.1516 96.8136 18.7672 89.2631 16.7435C79.7881 14.2033 70.5449 17.9073 68.508 25.0227C68.5059 25.0734 68.5049 25.123 68.5039 25.1726C70.9053 18.4857 79.8671 15.0834 89.0485 17.5447Z" fill="#2C2E35"/>
<path d="M88.5859 19.2716C96.7985 21.4736 102.514 27.6501 102.726 33.9329C102.759 33.864 102.792 33.7951 102.825 33.7263C102.884 33.0233 102.868 32.3174 102.785 31.6165C101.792 25.8786 96.351 20.4932 88.8015 18.4695C79.9076 16.0862 71.2203 19.2028 68.501 25.4775C68.502 25.5838 68.504 25.6912 68.5081 25.7975C71.4541 19.8469 79.9228 16.9491 88.5859 19.2716Z" fill="#2C2E35"/>
<path d="M88.1727 20.8133C96.0735 22.9312 101.663 28.7278 102.265 34.7584C102.327 34.6582 102.389 34.5559 102.448 34.4525C102.449 34.0211 102.423 33.5886 102.372 33.1581C101.378 27.4202 95.9388 22.0358 88.3884 20.0111C79.9267 17.7433 71.6524 20.4547 68.5261 26.1258C68.5352 26.2514 68.5464 26.377 68.5595 26.5015C71.8579 21.1212 79.9277 18.6032 88.1727 20.8133Z" fill="#2C2E35"/>
<path d="M87.7607 22.3548C95.3183 24.3816 100.763 29.7751 101.747 35.52C101.834 35.4015 101.921 35.283 102.004 35.1615C101.992 35.0075 101.977 34.8536 101.959 34.6996C100.965 28.9628 95.5258 23.5773 87.9753 21.5536C79.9248 19.3952 72.0443 21.7441 68.6041 26.8621C68.6234 26.9968 68.6456 27.1335 68.6699 27.2682C72.2417 22.4267 79.9207 20.2531 87.7607 22.3548Z" fill="#2C2E35"/>
<path d="M87.3303 23.9581C94.5133 25.8836 99.7858 30.8497 101.136 36.2675C101.244 36.147 101.349 36.0244 101.451 35.8998C100.279 30.3149 94.9192 25.1331 87.546 23.1559C79.9176 21.112 72.441 23.1134 68.7518 27.6835C68.7822 27.8273 68.8156 27.9701 68.8521 28.1129C72.6404 23.8082 79.9135 21.9699 87.3303 23.9581Z" fill="#2C2E35"/>
<path d="M86.8526 25.7467C93.5901 27.5527 98.648 32.0356 100.363 37.0564C100.486 36.9429 100.606 36.8275 100.722 36.71C99.1644 31.5059 94.0072 26.8052 87.0662 24.9446C79.9126 23.0272 72.8937 24.668 69.004 28.6496C69.0506 28.7985 69.0992 28.9484 69.1508 29.0973C73.1032 25.375 79.9146 23.8871 86.8526 25.7467Z" fill="#2C2E35"/>
<path d="M86.389 27.4738C92.676 29.1592 97.4981 33.1732 99.5097 37.7807C99.6494 37.6724 99.7861 37.562 99.9197 37.4495C98.0387 32.6455 93.1032 28.4138 86.6047 26.6716C79.9208 24.8809 73.3544 26.1956 69.3494 29.6221C69.4111 29.7771 69.4759 29.9331 69.5458 30.087C73.5792 26.9127 79.9299 25.7418 86.389 27.4738Z" fill="#2C2E35"/>
<path d="M85.9435 29.1387C91.7688 30.6996 96.3378 34.2618 98.5772 38.4419C98.7352 38.3396 98.889 38.2353 99.0409 38.1279C96.9027 33.7382 92.2082 29.9582 86.1581 28.3366C79.9451 26.6714 73.8332 27.6914 69.7856 30.5952C69.8656 30.7573 69.9486 30.9173 70.0347 31.0774C74.0782 28.4196 79.9643 27.5354 85.9435 29.1387Z" fill="#2C2E35"/>
<path d="M85.4979 30.803C90.8313 32.2342 95.1117 35.3407 97.5151 39.065C97.6943 38.9687 97.8705 38.8715 98.0436 38.7702C95.711 34.8221 91.2868 31.4968 85.7126 30.0019C79.9915 28.4684 74.3565 29.2118 70.3403 31.6062C70.4416 31.7744 70.5458 31.9405 70.6552 32.1066C74.6288 29.9532 80.0249 29.3364 85.4979 30.803Z" fill="#2C2E35"/>
<path d="M62.0003 46.6977C60.918 50.7431 59.8347 54.7865 58.7515 58.8308C58.3435 60.3542 59.2982 61.8016 60.7783 62.3414C58.8031 61.601 57.5062 60.184 56.8664 58.7022C53.4921 50.891 50.4691 43.3157 48.1335 35.6099C47.8044 34.5231 48.1436 33.2661 48.505 31.9463C49.6824 27.6497 50.8042 23.3035 51.9056 18.9877C52.1152 18.1673 52.585 18.0741 52.9585 18.8641C56.1132 25.5369 58.9165 32.784 61.6277 40.6509C62.3171 42.6483 62.5632 44.672 62.0003 46.6977Z" fill="#9395A4"/>
<path d="M65.2945 44.5282C73.096 46.2754 82.0173 48.4784 89.8036 51.1271C91.2959 51.6335 96.8904 52.8368 96.1645 55.5452L92.7102 68.442C92.3032 69.9643 92.364 71.0744 90.1701 70.645C80.3914 68.7296 69.9596 65.6931 60.7782 62.3415C59.2981 61.8016 58.3434 60.3542 58.7514 58.8309L62.0002 46.6978C62.4082 45.1755 63.7567 44.1839 65.2945 44.5282Z" fill="#888B9A"/>
<path d="M92.7104 68.4419L92.765 68.2404L92.8187 68.0388L92.8724 67.8373L92.926 67.6357L92.9797 67.4341L93.0343 67.2326L93.0516 67.1688L96.1647 55.5441C96.6516 53.9195 97.743 52.8631 98.9275 51.9079C105.23 46.8193 111.784 42.1702 118.493 37.7653C119.502 37.1029 120.192 37.2274 119.857 38.4216C118.576 42.9805 117.373 47.5607 116.182 52.1449C115.88 53.3016 115.292 54.3955 114.271 55.2514C107.878 60.6125 101.021 65.1846 94.152 69.624C93.2307 70.2205 92.2882 70.6925 91.2262 70.727C92.357 70.6196 92.3834 69.6645 92.7104 68.4419Z" fill="#6D6E72"/>
<path d="M53.5874 16.6482C53.8891 16.3919 54.1918 16.1367 54.4945 15.8824C54.368 16.2602 54.2505 16.6421 54.1473 17.03C53.8658 18.0794 53.6785 19.1378 53.5823 20.1993C53.3748 19.7526 53.1683 19.307 52.9587 18.8643C52.6965 18.3093 52.3867 18.1908 52.1528 18.4521C52.5153 17.7471 52.9992 17.1495 53.5874 16.6482Z" fill="#454C54"/>
<path d="M69.4052 45.4694C68.0101 45.1432 66.6353 44.8292 65.2949 44.5284C63.757 44.184 62.4085 45.1756 62.0005 46.698C62.5634 44.6722 62.3174 42.6485 61.628 40.6512C61.4275 40.0688 61.226 39.4884 61.0236 38.9131C63.3652 41.3743 66.1898 43.5996 69.4052 45.4694Z" fill="url(#paint3_linear_2_232)"/>
<path d="M101.009 50.251C100.313 50.7979 99.6181 51.3499 98.9277 51.908C97.7431 52.8631 96.6518 53.9196 96.1648 55.5452C96.7773 53.2561 92.8796 52.0437 90.7566 51.4158C94.3536 51.4786 97.812 51.0744 101.009 50.251Z" fill="url(#paint4_linear_2_232)"/>
<path d="M119.264 33.5174C119.786 34.7673 120.15 36.1083 119.939 37.7805C119.826 37.265 119.342 37.2883 118.658 37.6782L117.447 38.4703C118.31 36.8416 118.905 35.1886 119.264 33.5174Z" fill="#A9ADBA"/>
<path d="M67.9968 45.6365C67.9594 45.597 67.9199 45.5575 67.8824 45.517M67.6871 45.3114C67.6476 45.2688 67.6081 45.2263 67.5686 45.1827" stroke="#6B707C" stroke-width="0.1"/>
<path d="M94.802 53.0495L94.7534 53.0707M94.5621 53.1518C94.5003 53.1781 94.4376 53.2044 94.3748 53.2298M94.1399 53.3229C94.0913 53.3412 94.0437 53.3594 93.9952 53.3776M67.5513 47.3015C67.5129 47.262 67.4744 47.2214 67.4359 47.1819M67.2415 46.9763C67.2021 46.9338 67.1616 46.8912 67.1221 46.8487M66.9459 46.6532C66.9024 46.6056 66.8609 46.558 66.8184 46.5094C66.8609 46.557 66.9034 46.6056 66.9459 46.6532ZM66.6624 46.3281C66.6169 46.2754 66.5713 46.2227 66.5278 46.1701C66.5723 46.2227 66.6169 46.2754 66.6624 46.3281ZM66.382 45.9938C66.3405 45.9422 66.298 45.8915 66.2565 45.8389C66.298 45.8905 66.3405 45.9422 66.382 45.9938Z" stroke="#6B707C" stroke-width="0.1"/>
<path d="M94.9366 54.4514C94.8536 54.4909 94.7695 54.5304 94.6845 54.5689M94.5336 54.6378C94.4587 54.6712 94.3838 54.7036 94.3079 54.736M94.1165 54.817C94.0538 54.8424 93.991 54.8687 93.9292 54.894M93.6933 54.9882C93.6458 55.0054 93.5972 55.0247 93.5496 55.0439M67.1058 48.9667C67.0663 48.9272 67.0278 48.8877 66.9893 48.8472M66.795 48.6416C66.7555 48.5991 66.716 48.5555 66.6765 48.513M66.4993 48.3185C66.4568 48.2699 66.4143 48.2233 66.3728 48.1747M66.2159 47.9934C66.1713 47.9407 66.1258 47.888 66.0812 47.8354M65.9364 47.6591C65.8939 47.6075 65.8524 47.5558 65.8109 47.5042M95.707 54.0614C95.6179 54.1101 95.5278 54.1566 95.4377 54.2032C95.5288 54.1566 95.6179 54.1101 95.707 54.0614ZM95.3253 54.261C95.2383 54.3045 95.1512 54.3481 95.0631 54.3906C95.1512 54.3471 95.2383 54.3045 95.3253 54.261Z" stroke="#6B707C" stroke-width="0.1"/>
<path d="M246 4.73816L220.5 32.7382L225 67.7382H204L201.5 32.7382L189.5 67.7382H170L191 4.73816H210.5L201.5 32.7382L227 4.73816H246Z" fill="#0C5580"/>
<path d="M134 4.73813L113 67.7382H132L147 21.7381H154C158.463 25.3697 155 31.7381 146.5 31.2381L141 47.2381L143.5 67.7382H163.5L161.5 41.7381C187.5 24.2382 174.5 4.2381 165 4.73813H134Z" fill="#0C5580"/>
<path fill-rule="evenodd" clip-rule="evenodd" d="M1 22.2382L7 4.73816H55L49.5 22.2382H35L33.8077 25.7382H14.3077L15.5 22.2382H1ZM11.4121 34.2382L13.456 28.2382H32.956L30.9121 34.2382H11.4121ZM8.51648 42.7382L10.5604 36.7382H30.0604L28.0165 42.7382H8.51648ZM5.62088 51.2382L7.66483 45.2382H27.1648L25.1209 51.2382H5.62088ZM2.72527 59.7382L4.76923 53.7382H24.2692L22.2253 59.7382H2.72527ZM1.87363 62.2382H21.3736L19.5 67.7382H0L1.87363 62.2382Z" fill="#0C5580"/>
<defs>
<linearGradient id="paint0_linear_2_232" x1="67" y1="6.23816" x2="108.5" y2="45.2382" gradientUnits="userSpaceOnUse">
<stop stop-color="#656974"/>
<stop offset="1" stop-color="#89919E"/>
</linearGradient>
<linearGradient id="paint1_linear_2_232" x1="81.9999" y1="9.73816" x2="94.9999" y2="40.2382" gradientUnits="userSpaceOnUse">
<stop stop-color="#4E545E"/>
<stop offset="1" stop-color="#6F737F"/>
</linearGradient>
<linearGradient id="paint2_linear_2_232" x1="69" y1="10.7382" x2="104" y2="40.2382" gradientUnits="userSpaceOnUse">
<stop stop-color="#71757E"/>
<stop offset="1" stop-color="#72767F"/>
</linearGradient>
<linearGradient id="paint3_linear_2_232" x1="62.0001" y1="40.7382" x2="64.0001" y2="44.2382" gradientUnits="userSpaceOnUse">
<stop stop-color="#5A5E69"/>
<stop offset="1" stop-color="#5D646E"/>
</linearGradient>
<linearGradient id="paint4_linear_2_232" x1="93.5" y1="51.2382" x2="97.5" y2="53.2382" gradientUnits="userSpaceOnUse">
<stop stop-color="#5E646F"/>
<stop offset="1" stop-color="#5A646E"/>
</linearGradient>
</defs>
</svg>
